<?xml version="1.0" encoding="utf-8"?>
<!-- Generator: Adobe Illustrator 24.0.1, SVG Export Plug-In . SVG Version: 6.00 Build 0)  -->
<svg version="1.1" id="Layer_1" xmlns="http://www.w3.org/2000/svg" xmlns:xlink="http://www.w3.org/1999/xlink" x="0px" y="0px"
	 viewBox="0 0 3057 1272.3" style="enable-background:new 0 0 3057 1272.3;" xml:space="preserve">
<style type="text/css">
	.st0{fill:#FCFCFC;}
	.st1{fill:none;stroke:#FCFCFC;stroke-width:145;stroke-miterlimit:10;}
	.st2{fill:none;stroke:#3B3838;stroke-width:145;stroke-miterlimit:10;}
	.st3{fill:none;stroke:#FCFCFC;stroke-width:143.5;stroke-miterlimit:10;}
	.st4{fill:none;}
	.st5{font-family:'Quicksand-Regular';}
	.st6{font-size:140px;}
	.st7{letter-spacing:28;}
	.st8{fill:url(#path1151_2_);}
	.st9{fill:url(#path1153_2_);}
	.st10{opacity:0.978;fill:#FFFFFF;fill-opacity:0.9814;enable-background:new    ;}
</style>
<g id="Layer_2_1_">
</g>
<polygon class="st0" points="1312.8,859.2 1168.8,859.2 1168.8,193.2 1312.8,139.2 "/>
<circle class="st1" cx="1023.7" cy="592.4" r="194.3"/>
<polygon class="st0" points="1492.6,859.2 1348.6,859.2 1348.6,372.8 1492.6,333.3 "/>
<circle class="st0" cx="1420.6" cy="245.2" r="72"/>
<polygon class="st0" points="1673.5,857.9 1529.5,857.9 1529.5,372.9 1673.5,333.5 "/>
<path class="st2" d="M1868.2,785.6"/>
<path class="st3" d="M1990.4,591.3c0-107.3-87-194.3-194.3-194.3s-194.3,87-194.3,194.3"/>
<path class="st3" d="M2378.6,592.9c0-107.3-87-194.3-194.3-194.3s-194.3,87-194.3,194.3"/>
<polygon class="st0" points="2061.8,859.4 1917.8,859.4 1917.8,590.2 2061.8,589.8 "/>
<polygon class="st0" points="2450.4,859.4 2306.9,859.4 2306.9,586.9 2450.4,586.4 "/>
<path class="st2" d="M2942.6,632.6"/>
<path class="st1" d="M2942.6,632.6c2.8-13.2,4.3-26.9,4.3-41c0-107.3-87-194.3-194.3-194.3s-194.3,87-194.3,194.3
	s87,194.3,194.3,194.3c59.3,0,112.4-26.5,148-68.4"/>
<polyline class="st0" points="2938.3,647.8 2525.7,647.8 2525.7,536.6 3013.5,536.6 3013.5,647.8 2938.3,647.8 "/>
<rect x="2631.6" y="-188" class="st4" width="3.3" height="3.3"/>
<text transform="matrix(1 0 0 1 779.9746 1018.374)" class="st0 st5 st6 st7">Technologies</text>
<g>
	<g id="layer1_1_" transform="translate(-17.541196,-30.139021)">
		
			<linearGradient id="path1151_2_" gradientUnits="userSpaceOnUse" x1="-274.3804" y1="1345.9469" x2="-263.7971" y2="1388.2803" gradientTransform="matrix(2.8346 0 0 -2.8346 1050.5951 3966.8086)">
			<stop  offset="0" style="stop-color:#E6E6E6"/>
			<stop  offset="1" style="stop-color:#FFFFFF"/>
		</linearGradient>
		<path id="path1151_1_" class="st8" d="M288.9,277.8c-2.9-1-14-5.8-24.6-10.7c-10.6-4.9-62.8-28.8-115.9-53.2s-98.1-45.4-100-46.7
			c-6.4-4.6-8.2-9.2-5.7-14.4c0.6-1.3,22.4-23.6,48.3-49.4c49.9-49.7,49.1-49.1,60.4-53.2c10.1-3.7,16.4-4.8,32.2-5.1
			c10.9-0.3,17.4-0.1,23.1,0.7c27.5,3.8,306.9,45.3,308.7,45.9l2.3,0.7l-2.1,0.1c-3.4,0.1-11.8,3.6-16.2,6.7
			c-2.2,1.6-44.5,41.6-93.8,88.8c-71.3,68.2-90.8,86.5-94.5,88.6C304.8,280,296.9,280.5,288.9,277.8z"/>
		
			<linearGradient id="path1153_2_" gradientUnits="userSpaceOnUse" x1="-165.5711" y1="1351.4338" x2="-186.7378" y2="1309.1006" gradientTransform="matrix(2.8346 0 0 -2.8346 1050.5951 3966.8086)">
			<stop  offset="0" style="stop-color:#999999"/>
			<stop  offset="1" style="stop-color:#FFFFFF"/>
		</linearGradient>
		<path id="path1153_1_" class="st9" d="M231.9,505V253l3.6,1.8c3.9,2,48.3,22.2,51.7,23.6c2.1,0.8,6.3,1.5,10.8,1.7
			c13.3,0.7,6.4,6.4,96.4-79.8C506.2,93.2,498.2,100.7,505.6,97c13.1-6.4,26.1-5.4,38.4,3c8.5,5.7,15.4,15.9,17.4,25.6
			c0.6,2.9,0.5,93.1,0.5,317.7v312.9H397.7H231.9V505z"/>
		<path id="rect1494-9-4-6-5-4-6-5-6-8-84-04_1_" class="st10" d="M546.9,1056.3h15v15h-15V1056.3z M501.9,1056.3h15v15h-15V1056.3z
			 M396.9,1056.3h15v15h-15V1056.3z M336.9,1056.3h15v15h-15V1056.3z M276.9,1056.3h15v15h-15V1056.3z M261.9,1011.3h15v15h-15
			V1011.3z M366.9,996.3h15v15h-15V996.3z M321.9,996.3h15v15h-15V996.3z M516.9,1086.3h15v15h-15V1086.3z M426.9,1086.3h15v15h-15
			V1086.3z M306.9,1071.3h15v15h-15V1071.3z M486.9,1183.8h15v15h-15V1183.8z M486.9,1026.3h15v15h-15L486.9,1026.3z M381.9,1041.3
			h15v15h-15V1041.3z M546.9,1116.3h15v15h-15V1116.3z M231.9,1056.3h15v15h-15V1056.3z M336.9,1131.3h15v15h-15V1131.3z
			 M441.9,1116.3h15v15h-15V1116.3z M366.9,1086.3h15v15h-15V1086.3z M231.9,1116.3h15v15h-15V1116.3z M231.9,1236.3h15v15h-15
			V1236.3z M351.9,1221.3h15v15h-15L351.9,1221.3z M261.9,1101.3h15v15h-15V1101.3z M486.9,1131.3h15v15h-15V1131.3z M261.9,1176.3
			h15v15h-15V1176.3z M396.9,1168.8h15v15h-15V1168.8z M471.9,1236.3h15v15h-15V1236.3z M546.9,1281.3h15v15h-15V1281.3z
			 M546.9,1153.8h15v15h-15V1153.8z M546.9,1086.3h15v15h-15V1086.3z M494.4,1071.3h15v15h-15V1071.3z M516.9,1011.3h15v15h-15
			V1011.3z M464.4,1011.3h15v15h-15V1011.3z M486.9,996.3h15v15h-15L486.9,996.3z M546.9,1026.3h15v15h-15V1026.3z M426.9,1026.3h15
			v15h-15V1026.3z M464.4,1056.3h15v15h-15L464.4,1056.3z M336.9,1026.3h15v15h-15V1026.3z M291.9,1026.3h15v15h-15V1026.3z
			 M231.9,1026.3h15v15h-15V1026.3z M246.9,996.3h15v15h-15L246.9,996.3z M396.9,981.3h15v15h-15V981.3z M366.9,981.3h15v15h-15
			V981.3z M291.9,981.3h15v15h-15V981.3z M336.9,966.3h15v15h-15V966.3z M306.9,966.3h15v15h-15V966.3z M276.9,966.3h15v15h-15
			V966.3z M261.9,981.3h15v15h-15V981.3z M231.9,981.3h15v15h-15V981.3z M419.4,996.3h15v15h-15V996.3z M419.4,966.3h15v15h-15
			V966.3z M329.4,951.3h15v15h-15V951.3z M269.4,951.3h22.5v15h-22.5V951.3z M231.9,951.3h22.5v15h-22.5V951.3z M359.4,951.3h22.5
			v15h-22.5V951.3z M396.9,951.3h22.5v15h-22.5V951.3z M546.9,996.3h15v15h-15V996.3z M434.4,951.3h15v15h-15V951.3z M464.4,966.3
			h22.5v15h-22.5V966.3z M501.9,966.3h15v15h-15V966.3z M531.9,951.3h15v15h-15V951.3z M531.9,966.3h30v15h-30V966.3z M516.9,936.3
			h30v15h-30V936.3z M411.9,936.3h15v15h-15V936.3z M419.4,921.3h22.5v15h-22.5V921.3z M471.9,936.3h30v15h-30V936.3z M344.4,921.3
			h30v15h-30L344.4,921.3z M299.4,921.3h30v15h-30V921.3z M321.9,936.3h30v15h-30V936.3z M389.4,921.3h15v15h-15V921.3z
			 M276.9,936.3h30v15h-30V936.3z M246.9,936.3h15v15h-15V936.3z M524.4,921.3h37.5v15h-37.5V921.3z M344.4,906.3h45v15h-45
			L344.4,906.3z M261.9,906.3h37.5v15h-37.5V906.3z M314.4,906.3h15v15h-15V906.3z M231.9,906.3h15v15h-15V906.3z M404.4,906.3h15
			v15h-15V906.3z M486.9,906.3h30v15h-30L486.9,906.3z M531.9,906.3h15v15h-15V906.3z M524.4,891.3h37.5v15h-37.5V891.3z
			 M471.9,891.3h37.5v15h-37.5V891.3z M366.9,891.3h37.5v15h-37.5V891.3z M456.9,906.3h15v15h-15V906.3z M419.4,891.3h37.5v15h-37.5
			V891.3z M336.9,891.3h15v15h-15V891.3z M246.9,891.3h37.5v15h-37.5L246.9,891.3z M284.4,876.3h15v15h-15V876.3z M299.4,891.3h22.5
			v15h-22.5V891.3z M231.9,876.3h37.5v15h-37.5V876.3z M299.4,876.3h37.5v15h-37.5V876.3z M351.9,876.3h37.5v15h-37.5V876.3z
			 M404.4,876.3h37.5v15h-37.5V876.3z M456.9,876.3h37.5v15h-37.5V876.3z M509.4,876.3h37.5v15h-37.5V876.3z M524.4,861.3h37.5v15
			h-37.5V861.3z M381.9,861.3h45v15h-45V861.3z M441.9,861.3h67.5v15h-67.5V861.3z M314.4,861.3h52.5v15h-52.5V861.3z M464.4,831.3
			h82.5v15h-82.5V831.3z M494.4,846.3h67.5v15h-67.5V846.3z M411.9,846.3h67.5v15h-67.5V846.3z M329.4,846.3h67.5v15h-67.5
			L329.4,846.3z M231.9,861.3h67.5v15h-67.5L231.9,861.3z M246.9,846.3h67.5v15h-67.5L246.9,846.3z M231.9,831.3h37.5v15h-37.5
			L231.9,831.3z M284.4,831.3h165v15h-165L284.4,831.3z M314.4,816.3h37.5v15h-37.5V816.3z M366.9,816.3h165v15h-165V816.3z
			 M231.9,816.3h67.5v15h-67.5V816.3z M411.9,801.3h67.5v15h-67.5V801.3z M494.4,801.3h67.5v15h-67.5V801.3z M546.9,816.3h15v15h-15
			V816.3z M231.9,801.3h165v15h-165V801.3z M276.9,786.3h285v15h-285V786.3z M231.9,786.3h30v15h-30V786.3z M231.9,771.3h315v15
			h-315V771.3z M246.9,756.3h315v15h-315V756.3z"/>
	</g>
</g>
</svg>
