<?xml version="1.0" encoding="utf-8"?>
<!-- Generator: Adobe Illustrator 24.0.1, SVG Export Plug-In . SVG Version: 6.00 Build 0)  -->
<svg version="1.1" id="Layer_1" xmlns="http://www.w3.org/2000/svg" xmlns:xlink="http://www.w3.org/1999/xlink" x="0px" y="0px"
	 viewBox="0 0 1440 320" style="enable-background:new 0 0 1440 320;" xml:space="preserve">
<style type="text/css">
	.st0{fill:#0E2C44;}
	.st1{fill:#0060BF;}
</style>
<path class="st0" d="M60.3,13.6c31.8,3,67.8,8.8,99.7,9.5c8.1,0.2,14.8,0.1,22.8-2.4c18.5-5.8,23.8-19.5,56.4-15.7
	c49.5,5.8,63.8,34.6,138.3,31.3c45.9-2,65.9-47.2,101.3-22c47.5,33.8,19.8-8.4,70.4,3.3c40.1,9.3,8.3-9.9,59.4-2.2
	c54.2,8.2,13.1-11.5,68.2-1.1c86.8,16.5,45.7-1.2,117.6,1.1c93,3,70.5-12.6,107.7,5.5c38.5,18.7,44.2-6.7,101.1,3.3
	c67.9,11.9,408.6-58.9,433.4,4c2.4,6.1,3.8,16.7,3.5,22.4c-2.3,47.5-15.9,125.7,0,269.4c-26.7,0-53.3,0-80,0c-80,0-240,0-400,0
	s-320,0-480,0s-320,0-400,0H0c0-48,3.3-121,6.5-182c1.7-32.7,7.1-45.3,4.1-71.9C7.8,41,1.6,27.2,9.8,17.6
	C13.6,13.1,20.3,9.8,60.3,13.6z"/>
<path class="st1" d="M1440,115.4"/>
</svg>
