<?xml version="1.0"?>
<svg xmlns="http://www.w3.org/2000/svg" id="Bold" enable-background="new 0 0 24 24" height="512px" viewBox="0 0 24 24" width="512px"><g transform="matrix(0.747098 0 0 0.747098 3.03483 3.03483)"><path d="m19 22.594-1.175-3.425c-.458.214-1.327.399-1.968.419h-.091c-1.863 0-2.228-1.37-2.244-2.371v-7.47h4.901v-3.633h-4.883v-6.114h-3.575c-.059 0-.162.051-.176.179-.202 1.873-1.098 5.156-4.789 6.469v3.099h2.456v7.842c0 2.655 1.97 6.411 7.148 6.411l-.011-.002h.181c1.786-.03 3.783-.768 4.226-1.404z" data-original="#000000" class="active-path" data-old_color="#000000" fill="#1E1C32"/></g> </svg>
