<?xml version="1.0" encoding="UTF-8" standalone="no"?>
<svg
   xmlns:dc="http://purl.org/dc/elements/1.1/"
   xmlns:cc="http://creativecommons.org/ns#"
   xmlns:rdf="http://www.w3.org/1999/02/22-rdf-syntax-ns#"
   xmlns:svg="http://www.w3.org/2000/svg"
   xmlns="http://www.w3.org/2000/svg"
   xmlns:sodipodi="http://sodipodi.sourceforge.net/DTD/sodipodi-0.dtd"
   xmlns:inkscape="http://www.inkscape.org/namespaces/inkscape"
   version="1.1"
   id="Capa_1"
   x="0px"
   y="0px"
   viewBox="0 0 512.00098 405.33438"
   xml:space="preserve"
   width="512.00098"
   height="405.33438"
   class="hovered-paths"
   sodipodi:docname="w-right-arrow.svg"
   inkscape:version="0.92.4 (5da689c313, 2019-01-14)"><metadata
   id="metadata4542"><rdf:RDF><cc:Work
       rdf:about=""><dc:format>image/svg+xml</dc:format><dc:type
         rdf:resource="http://purl.org/dc/dcmitype/StillImage" /></cc:Work></rdf:RDF></metadata><defs
   id="defs4540" /><sodipodi:namedview
   pagecolor="#ffffff"
   bordercolor="#666666"
   borderopacity="1"
   objecttolerance="10"
   gridtolerance="10"
   guidetolerance="10"
   inkscape:pageopacity="0"
   inkscape:pageshadow="2"
   inkscape:window-width="1600"
   inkscape:window-height="877"
   id="namedview4538"
   showgrid="false"
   inkscape:zoom="0.4609375"
   inkscape:cx="256"
   inkscape:cy="202.66699"
   inkscape:window-x="-8"
   inkscape:window-y="-8"
   inkscape:window-maximized="1"
   inkscape:current-layer="Capa_1" /><g
   id="g4535"
   transform="translate(0,-53.332625)"><path
     style="fill:#2196f3"
     d="m 511.189,259.954 c 1.649,-3.989 0.731,-8.579 -2.325,-11.627 l -192,-192 c -4.237,-4.093 -10.99,-3.975 -15.083,0.262 -3.992,4.134 -3.992,10.687 0,14.82 L 475.584,245.212 H 10.667 C 4.776,245.213 0,249.989 0,255.88 c 0,5.891 4.776,10.667 10.667,10.667 H 475.584 L 301.803,440.328 c -4.237,4.093 -4.355,10.845 -0.262,15.083 4.093,4.237 10.845,4.354 15.083,0.262 0.089,-0.086 0.176,-0.173 0.262,-0.262 l 192,-192 c 0.986,-0.991 1.769,-2.165 2.303,-3.457 z"
     data-original="#2196F3"
     id="path4529"
     inkscape:connector-curvature="0" /><path
     d="m 309.333,458.546 c -5.891,0.011 -10.675,-4.757 -10.686,-10.648 -0.005,-2.84 1.123,-5.565 3.134,-7.571 L 486.251,255.88 301.781,71.432 c -4.093,-4.237 -3.975,-10.99 0.262,-15.083 4.134,-3.992 10.687,-3.992 14.82,0 l 192,192 c 4.164,4.165 4.164,10.917 0,15.083 l -192,192 c -1.998,1.994 -4.706,3.114 -7.53,3.114 z"
     data-original="#000000"
     class="hovered-path active-path"
     style="fill:#e3e9ed"
     data-old_color="#000000"
     id="path4531"
     inkscape:connector-curvature="0" /><path
     d="M 501.333,266.546 H 10.667 C 4.776,266.546 0,261.771 0,255.88 0,249.989 4.776,245.213 10.667,245.213 h 490.667 c 5.891,0 10.667,4.776 10.667,10.667 -10e-4,5.891 -4.777,10.666 -10.668,10.666 z"
     data-original="#000000"
     class="hovered-path active-path"
     style="fill:#e3e9ed"
     data-old_color="#000000"
     id="path4533"
     inkscape:connector-curvature="0" /></g> </svg>