<?xml version="1.0" encoding="utf-8"?>
<!-- Generator: Adobe Illustrator 24.0.1, SVG Export Plug-In . SVG Version: 6.00 Build 0)  -->
<svg version="1.1" id="Layer_1" xmlns="http://www.w3.org/2000/svg" xmlns:xlink="http://www.w3.org/1999/xlink" x="0px" y="0px"
	 viewBox="0 0 1440 1389.2" style="enable-background:new 0 0 1440 1389.2;" xml:space="preserve">
<style type="text/css">
	.st0{fill:#1C637C;}
	.st1{fill:#0D5DC5;}
	.st2{fill:#0D2840;}
	.st3{fill:#1D3159;fill-opacity:0.16;}
	.st4{fill:#45FFF9;}
	.st5{fill:#37A6A6;}
	.st6{fill:#FFFFFF;fill-opacity:0.16;}
	.st7{fill:url(#SVGID_1_);stroke:url(#SVGID_2_);stroke-miterlimit:10;}
	.st8{fill:#0596A6;}
	.st9{fill:#0D2840;fill-opacity:0.16;}
</style>
<path class="st0" d="M1385.6,463.2c-81.8,28.4-152.2-60.5-239.6-94.5c-178.6-69.5-267.3,152.7-512.2,134.1
	c-165.9-12.6-200.5-120.3-473.2-163.9C92.2,328,35.6,325.3,0,324.7C0,518.9,0,713,0,907.2c0,1.7,0,3.4,0,5.2v570h1440v-570
	c0-1.7,0-3.4,0-5.2c0-161.2,0-322.4,0-483.6C1429.9,435.9,1412.2,454,1385.6,463.2z"/>
<path class="st1" d="M992.3,852.8c2.3-1.1,22.3-7.7,23-6.8c0.5,0.6-3.5,21.4-4.1,22C1011,868.4,996.8,857,992.3,852.8z
	 M1103.7,397.7c0-0.1-4.4-8.5-6.3-12.8c-0.1-0.3-0.3-1-0.4-1.4s-0.3-0.6-0.5-0.8c-0.3-0.2-0.5-0.1-0.7,0.1l-11.8,11.1l0,0
	c-0.2,0.2-0.3,0.4-0.4,0.7c0,0.3,0,0.6,0.2,0.9c0.1,0.1,1.3,2.3,1.9,3.2c2.2,3.3,5.8,10.9,5.8,11c0.2,0.3,0.4,0.5,0.6,0.5
	c0.3,0,0.4-0.1,0.6-0.3c0,0,1.6-2.3,2.4-3.2c1.3-1.4,2.7-2.9,4.1-4.2c1.1-1.1,1.4-1.3,1.9-1.4c0.4-0.3,1-0.4,2.3-1.7
	C1103.8,398.8,1103.9,398.1,1103.7,397.7z M29.7,884.8L29.7,884.8c0-0.6-0.5-1.1-1.1-1.1c-0.1,0-0.3,0-0.4,0.1
	c-1.4,0.2-12.9,0.1-20,0c-0.3,0-0.5,0.1-0.8,0.4C7.2,884.4,7,884.6,7,885c0,0.2,0,4.4,0.1,5.3l0.4,12.2c0,0.3,0.2,0.5,0.4,0.8
	c0.2,0.2,0.5,0.3,0.7,0.3h0.1c6.6-0.6,13.2-0.8,19.8-0.5c0.3,0,0.6-0.1,0.8-0.3c0.2-0.2,0.4-0.5,0.4-0.8
	C29.6,896.5,29.6,890.1,29.7,884.8z"/>
<path class="st2" d="M154,654.9c0.7-1.4,8.2-12.2,8.9-12c0.5,0.2,6.6,11.8,6.6,12.3C169.4,655.3,157.9,655.2,154,654.9z
	 M397.1,837.6c-0.1-0.1-3.8-4.6-5.5-7c-0.1-0.2-0.3-0.6-0.4-0.8s-0.2-0.4-0.4-0.4c-0.2-0.1-0.3,0-0.5,0.2l-6,8.2l0,0
	c-0.1,0.1-0.1,0.3-0.1,0.5s0.1,0.4,0.2,0.5s1,1.2,1.6,1.7c1.8,1.7,5,5.8,5.1,5.9c0.1,0.2,0.3,0.2,0.5,0.2s0.3-0.1,0.3-0.3
	c0,0,0.7-1.6,1.1-2.3c0.6-1.1,1.3-2.1,2-3.1c0.5-0.8,0.7-0.9,1-1.1c0.3-0.2,0.6-0.4,1.2-1.3C397.4,838.4,397.4,837.9,397.1,837.6z
	 M472.1,541.6L472.1,541.6c0.3,0.1,0.7-0.1,0.8-0.4c0-0.1,0-0.1,0-0.2c0.1-0.8,1.6-7,2.6-10.9c0.1-0.2,0-0.3-0.1-0.4
	c-0.1-0.2-0.3-0.2-0.5-0.3c-0.1,0-2.7-0.6-3.3-0.7l-7.7-1.5c-0.2-0.1-0.4,0-0.5,0.1s-0.2,0.2-0.3,0.3v0.1c-0.5,3.6-1.3,7.3-2.2,10.8
	c-0.1,0.2,0,0.3,0.1,0.5s0.3,0.2,0.5,0.3C464.8,539.9,468.8,540.8,472.1,541.6z M472.7,540.6c-0.1-0.1-0.1-0.1-0.2-0.1
	C472.5,540.5,472.6,540.5,472.7,540.6z"/>
<g>
	<path class="st3" d="M629.6,616.9c-1.3,0-2.5-0.7-3.1-2.1c-0.7-1.7,0-3.8,1.7-4.5c3.3-1.4,6.1-4.2,7.6-7.7s1.5-7.3,0.2-10.7
		c-0.3-0.8-0.7-1.6-1.1-2.5c-0.7-1.5-1.6-3.3-2.1-5.3c-0.8-3.7-0.2-7.7,1.8-11.5c1.5-2.8,3.7-5.5,6.8-8.2c1.4-1.3,3.6-1.1,4.8,0.4
		c1.3,1.4,1.1,3.6-0.4,4.8c-2.5,2.3-4.2,4.2-5.3,6.3c-1.3,2.3-1.7,4.8-1.2,6.8c0.3,1.3,0.9,2.5,1.5,3.9c0.5,1,0.9,2,1.4,3
		c1.9,5,1.8,10.8-0.3,15.8s-6.1,9.1-11.1,11.3C630.5,616.8,630.1,616.9,629.6,616.9z M666.4,570.7c1.3-0.2,2.7,0.5,3.4,1.7
		c1,1.6,0.4,3.8-1.3,4.8c-3.3,1.9-5.8,5-6.8,8.5c-1.1,3.6-0.7,7.6,1,10.9c0.4,0.8,0.9,1.5,1.4,2.4c0.9,1.5,2,3.2,2.7,5.1
		c1.3,3.6,1.1,7.8-0.5,11.9c-1.3,3.1-3.2,5.9-6.1,9.1c-1.4,1.4-3.5,1.5-5,0.2c-1.4-1.3-1.5-3.5-0.2-4.9c2.3-2.5,3.9-4.8,4.8-6.9
		c1-2.5,1.2-5,0.5-7.1c-0.5-1.2-1.2-2.4-2-3.7c-0.5-0.9-1.2-1.9-1.7-2.9c-2.5-4.9-3.1-10.7-1.5-16s5.2-9.9,10.1-12.6
		C665.5,570.9,665.9,570.7,666.4,570.7z M235.2,723.3c5.1,6.1,8.1,14.1,8.5,20.2c0.4,6.6-2.2,14.8-9.2,18.4c-2.7,1.3-6,2-10.1,2
		c-7.1-0.1-11.6-2.6-13.9-7.6c-1.9-4.2-2.1-10.3,1.6-14.3c2.9-3.2,7-3.7,10.1-1.4c1.1,0.8,1.4,2.4,0.5,3.5s-2.4,1.4-3.5,0.5
		c-1.6-1.2-3.2,0.5-3.4,0.7c-2.2,2.3-1.9,6.3-0.7,8.9c1.3,3.1,4.2,4.5,9.4,4.6c3.2,0,5.8-0.5,7.7-1.4c4.2-2.2,6.9-7.7,6.5-13.5
		c-0.4-6.6-4.8-16.4-11.7-21.5c-3.8-2.8-7.6-3.7-11.6-2.8c-2.8,0.6-5.6,2.2-8.7,4.5c-5.9,4.6-10.5,10.6-12.8,17.1
		c-2.4,6.9-1.9,14.2,1.7,21.5c0.6,1.3,0.1,2.8-1.2,3.3c-1.3,0.6-2.8,0.1-3.3-1.2c-4.1-8.5-4.9-17.3-2-25.4
		c2.6-7.4,7.7-14.3,14.5-19.4c3.7-2.8,7.2-4.6,10.6-5.4c5.4-1.3,10.8,0,15.8,3.6C231.8,719.7,233.6,721.4,235.2,723.3z"/>
	<circle class="st3" cx="1246.4" cy="573.4" r="6.4"/>
	<circle class="st3" cx="1255.9" cy="553.8" r="6.4"/>
	<circle class="st3" cx="1267.6" cy="568.9" r="6.4"/>
	<path class="st3" d="M1328.4,521.1c-4.3-4.9-8.7-9.7-13.3-14.6c5-5,10-10.4,14-16.4c1.1-1.5,0.6-3.7-0.9-4.7
		c-1.5-1.1-3.7-0.6-4.7,0.9c-3.8,5.6-8.2,10.4-13.1,15.2c-4.3-4.5-8.7-9-13.2-13.4c-1.4-1.4-3.5-1.4-4.8,0c-1.3,1.3-1.3,3.5,0,4.8
		c4.4,4.3,8.7,8.8,13.1,13.3c-1,1-2.1,2-3.2,2.9c-3.7,3.4-7.6,7-11.2,10.8c-1.3,1.3-1.3,3.4,0,4.8l0,0c1.4,1.3,3.5,1.3,4.8-0.1
		c3.5-3.6,7.3-7.1,10.9-10.5c1.1-1,2.1-2,3.2-3c4.4,4.8,8.8,9.5,13.1,14.3c0.1,0.1,0.1,0.1,0.2,0.2c1.3,1.3,3.3,1.3,4.7,0.2
		C1329.6,524.7,1329.7,522.6,1328.4,521.1z"/>
	<path class="st3" d="M265.4,477.4l-0.4-2.3c-1.4-10-2-20.9-2.1-33.3c0-4.9,0-10.3,0.2-16.6c0-0.6,0-1.4,0-2.1
		c0-4.5,0-10.1,3.5-12.1c2-1.2,4.6-0.9,7.6,0.8c5.1,2.8,11.9,7.8,15.8,13.4c5,7,6.6,15.2,4.5,23.1c-2.9,11.1-13.5,27.9-27,28.9
		L265.4,477.4z"/>
	<path class="st3" d="M269.5,414.9c-0.2,0-0.3,0-0.4,0.1s-0.6,0.4-1,2.4c-0.3,1.7-0.3,3.8-0.3,5.7c0,0.7,0,1.5,0,2.2
		c-0.2,6.2-0.2,11.5-0.2,16.5c0.1,11.3,0.6,21.2,1.8,30.3c9.9-2.4,18.4-16.3,20.7-25c1.7-6.5,0.4-13.3-3.8-19.2l0,0
		c-3.5-5-9.8-9.5-14.3-12C270.8,415.2,269.9,414.9,269.5,414.9z"/>
	<path class="st3" d="M368.3,479.2c-0.1,0-0.2,0-0.4-0.1c-2.2-0.6-3.6-0.8-6-0.6c-0.6,0-1.2-0.5-1.3-1.1c0-0.6,0.4-1.2,1.1-1.3
		c2.8-0.2,4.4,0,6.8,0.7c0.6,0.2,1,0.8,0.8,1.4C369.2,478.8,368.8,479.2,368.3,479.2z"/>
	<path class="st3" d="M359.1,487.9c-0.5,0-0.9-0.3-1.1-0.7c-0.7-1.9-1.1-3.9-1.2-5.9c0-0.6,0.5-1.2,1.1-1.2s1.2,0.5,1.2,1.1
		c0.1,1.8,0.5,3.5,1,5.2c0.2,0.6-0.1,1.3-0.7,1.4C359.4,487.9,359.2,487.9,359.1,487.9z"/>
	<path class="st3" d="M348.3,482.4c-0.4,0-0.7-0.2-0.9-0.4c-0.4-0.5-0.3-1.3,0.2-1.6c1.6-1.3,3.3-2.3,5.2-3.2c0.5-0.3,1.3,0,1.5,0.5
		c0.3,0.5,0,1.3-0.5,1.5c-1.7,0.8-3.3,1.8-4.8,3C348.9,482.3,348.6,482.4,348.3,482.4z"/>
	<path class="st3" d="M354.1,474.2c-0.4,0-0.8-0.3-1.1-0.6c-0.4-0.9-1.1-1.7-2.2-3.1c-0.3-0.4-0.6-0.8-1-1.3s-0.3-1.3,0.2-1.6
		c0.5-0.4,1.3-0.3,1.6,0.2c0.4,0.4,0.7,0.9,1,1.3c1.2,1.4,1.9,2.3,2.4,3.5c0.3,0.5,0,1.3-0.5,1.5
		C354.5,474.2,354.3,474.2,354.1,474.2z"/>
	<path class="st3" d="M359.7,474c-0.3,0-0.5-0.1-0.7-0.2c-0.5-0.4-0.6-1.1-0.3-1.6c1.1-1.5,2.1-3.1,3-4.7c0.3-0.5,1-0.8,1.5-0.4
		c0.5,0.3,0.8,1,0.5,1.5c-0.9,1.7-2,3.4-3.1,5C360.3,473.8,360,474,359.7,474z"/>
	<path class="st3" d="M897,598.2c-0.1,0-0.2,0-0.4-0.1c-2.2-0.6-3.6-0.8-6-0.6c-0.6,0-1.2-0.5-1.3-1.1c0-0.6,0.5-1.2,1.1-1.3
		c2.8-0.2,4.4,0,6.8,0.7c0.6,0.2,1,0.8,0.8,1.4C897.9,597.8,897.4,598.2,897,598.2z"/>
	<path class="st3" d="M887.8,606.9c-0.4,0-0.9-0.3-1.1-0.7c-0.7-1.9-1.1-3.9-1.2-5.9c0-0.6,0.5-1.2,1.1-1.2s1.2,0.5,1.2,1.1
		c0.1,1.8,0.5,3.5,1,5.2c0.2,0.6-0.1,1.3-0.7,1.4C888.1,606.9,887.9,606.9,887.8,606.9z"/>
	<path class="st3" d="M877,601.4c-0.4,0-0.7-0.2-0.9-0.5c-0.4-0.5-0.3-1.3,0.2-1.6c1.6-1.3,3.3-2.3,5.2-3.2c0.5-0.3,1.3,0,1.5,0.5
		c0.3,0.5,0,1.3-0.5,1.5c-1.7,0.8-3.3,1.8-4.8,3C877.5,601.3,877.3,601.4,877,601.4z"/>
	<path class="st3" d="M882.8,593.2c-0.4,0-0.8-0.3-1.1-0.6c-0.4-0.9-1.1-1.7-2.2-3.1c-0.3-0.4-0.6-0.8-1-1.3s-0.3-1.3,0.2-1.6
		c0.5-0.4,1.3-0.3,1.6,0.2c0.4,0.4,0.7,0.9,1,1.3c1.2,1.4,1.9,2.3,2.4,3.5c0.3,0.5,0,1.3-0.5,1.5
		C883.1,593.2,882.9,593.2,882.8,593.2z"/>
	<path class="st3" d="M888.3,593c-0.3,0-0.5-0.1-0.7-0.2c-0.5-0.4-0.6-1.1-0.3-1.6c1.1-1.5,2.1-3.1,3-4.7c0.3-0.5,1-0.8,1.5-0.5
		s0.8,1,0.5,1.5c-0.9,1.7-2,3.4-3.1,5C889,592.8,888.7,593,888.3,593z"/>
	<path class="st3" d="M1167.3,769.7c-1.3,0-2.6-0.2-4-0.6c-7.6-2.4-14.9-11.4-16.8-18c-0.4-1.3-0.6-2.6-0.8-4
		c-7.3,3-14,9.5-13.9,18.9c0,1.4-1.1,2.4-2.4,2.5l0,0c-1.3,0-2.4-1.1-2.4-2.4c-0.1-6,2.2-11.6,6.3-16.2c3.2-3.6,7.6-6.4,12.3-7.9
		c0.4-5.8,2.8-11.6,6.7-15.7c6.3-6.7,16.4-8,24.6-9.1l0.6-0.1c1.3-0.2,2.6,0.8,2.8,2.1c0.2,1.3-0.8,2.6-2.1,2.8l-0.6,0.1
		c-7.7,1.1-16.6,2.3-21.6,7.6c-2.7,2.9-4.5,6.9-5.1,11.2c7.1-0.9,15.9,1.2,21.9,5.1c3.9,2.6,6.4,7,6.5,11.4c0.2,3.9-1.5,7.5-4.7,10
		C1172.3,768.8,1169.9,769.7,1167.3,769.7z"/>
	<path class="st3" d="M1150.5,745.7c0.1,1.3,0.4,2.7,0.7,4c1.5,5.2,7.8,12.8,13.6,14.7c2.5,0.8,4.6,0.5,6.5-1
		c2.4-1.9,2.9-4.3,2.8-5.9c-0.1-2.9-1.8-5.8-4.3-7.5C1164.6,746.4,1156.5,744.7,1150.5,745.7z"/>
</g>
<path class="st4" d="M992.3,852.8c2.3-1.1,22.3-7.7,23-6.8c0.5,0.6-3.5,21.4-4.1,22C1011,868.4,996.8,857,992.3,852.8z
	 M1103.7,397.7c0-0.1-4.4-8.5-6.3-12.8c-0.1-0.3-0.3-1-0.4-1.4s-0.3-0.6-0.5-0.8c-0.3-0.2-0.5-0.1-0.7,0.1l-11.8,11.1l0,0
	c-0.2,0.2-0.3,0.4-0.4,0.7c0,0.3,0,0.6,0.2,0.9c0.1,0.1,1.3,2.3,1.9,3.2c2.2,3.3,5.8,10.9,5.8,11c0.2,0.3,0.4,0.5,0.6,0.5
	c0.3,0,0.4-0.1,0.6-0.3c0,0,1.6-2.3,2.4-3.2c1.3-1.4,2.7-2.9,4.1-4.2c1.1-1.1,1.4-1.3,1.9-1.4c0.4-0.3,1-0.4,2.3-1.7
	C1103.8,398.8,1103.9,398.1,1103.7,397.7z M29.7,884.8L29.7,884.8c0-0.6-0.5-1.1-1.1-1.1c-0.1,0-0.3,0-0.4,0.1
	c-1.4,0.2-12.9,0.1-20,0c-0.3,0-0.5,0.1-0.8,0.4C7.2,884.4,7,884.6,7,885c0,0.2,0,4.4,0.1,5.3l0.4,12.2c0,0.3,0.2,0.5,0.4,0.8
	c0.2,0.2,0.5,0.3,0.7,0.3h0.1c6.6-0.6,13.2-0.8,19.8-0.5c0.3,0,0.6-0.1,0.8-0.3c0.2-0.2,0.4-0.5,0.4-0.8
	C29.6,896.5,29.6,890.1,29.7,884.8z"/>
<path class="st5" d="M154,654.9c0.7-1.4,8.2-12.2,8.9-12c0.5,0.2,6.6,11.8,6.6,12.3C169.4,655.3,157.9,655.2,154,654.9z
	 M397.1,837.6c-0.1-0.1-3.8-4.6-5.5-7c-0.1-0.2-0.3-0.6-0.4-0.8s-0.2-0.4-0.4-0.4c-0.2-0.1-0.3,0-0.5,0.2l-6,8.2l0,0
	c-0.1,0.1-0.1,0.3-0.1,0.5s0.1,0.4,0.2,0.5s1,1.2,1.6,1.7c1.8,1.7,5,5.8,5.1,5.9c0.1,0.2,0.3,0.2,0.5,0.2s0.3-0.1,0.3-0.3
	c0,0,0.7-1.6,1.1-2.3c0.6-1.1,1.3-2.1,2-3.1c0.5-0.8,0.7-0.9,1-1.1c0.3-0.2,0.6-0.4,1.2-1.3C397.4,838.4,397.4,837.9,397.1,837.6z
	 M472.1,541.6L472.1,541.6c0.3,0.1,0.7-0.1,0.8-0.4c0-0.1,0-0.1,0-0.2c0.1-0.8,1.6-7,2.6-10.9c0.1-0.2,0-0.3-0.1-0.4
	c-0.1-0.2-0.3-0.2-0.5-0.3c-0.1,0-2.7-0.6-3.3-0.7l-7.7-1.5c-0.2-0.1-0.4,0-0.5,0.1s-0.2,0.2-0.3,0.3v0.1c-0.5,3.6-1.3,7.3-2.2,10.8
	c-0.1,0.2,0,0.3,0.1,0.5s0.3,0.2,0.5,0.3C464.8,539.9,468.8,540.8,472.1,541.6z M472.7,540.6c-0.1-0.1-0.1-0.1-0.2-0.1
	C472.5,540.5,472.6,540.5,472.7,540.6z"/>
<g>
	<path class="st6" d="M629.6,616.9c-1.3,0-2.5-0.7-3.1-2.1c-0.7-1.7,0-3.8,1.7-4.5c3.3-1.4,6.1-4.2,7.6-7.7s1.5-7.3,0.2-10.7
		c-0.3-0.8-0.7-1.6-1.1-2.5c-0.7-1.5-1.6-3.3-2.1-5.3c-0.8-3.7-0.2-7.7,1.8-11.5c1.5-2.8,3.7-5.5,6.8-8.2c1.4-1.3,3.6-1.1,4.8,0.4
		c1.3,1.4,1.1,3.6-0.4,4.8c-2.5,2.3-4.2,4.2-5.3,6.3c-1.3,2.3-1.7,4.8-1.2,6.8c0.3,1.3,0.9,2.5,1.5,3.9c0.5,1,0.9,2,1.4,3
		c1.9,5,1.8,10.8-0.3,15.8s-6.1,9.1-11.1,11.3C630.5,616.8,630.1,616.9,629.6,616.9z M666.4,570.7c1.3-0.2,2.7,0.5,3.4,1.7
		c1,1.6,0.4,3.8-1.3,4.8c-3.3,1.9-5.8,5-6.8,8.5c-1.1,3.6-0.7,7.6,1,10.9c0.4,0.8,0.9,1.5,1.4,2.4c0.9,1.5,2,3.2,2.7,5.1
		c1.3,3.6,1.1,7.8-0.5,11.9c-1.3,3.1-3.2,5.9-6.1,9.1c-1.4,1.4-3.5,1.5-5,0.2c-1.4-1.3-1.5-3.5-0.2-4.9c2.3-2.5,3.9-4.8,4.8-6.9
		c1-2.5,1.2-5,0.5-7.1c-0.5-1.2-1.2-2.4-2-3.7c-0.5-0.9-1.2-1.9-1.7-2.9c-2.5-4.9-3.1-10.7-1.5-16s5.2-9.9,10.1-12.6
		C665.5,570.9,665.9,570.7,666.4,570.7z M235.2,723.3c5.1,6.1,8.1,14.1,8.5,20.2c0.4,6.6-2.2,14.8-9.2,18.4c-2.7,1.3-6,2-10.1,2
		c-7.1-0.1-11.6-2.6-13.9-7.6c-1.9-4.2-2.1-10.3,1.6-14.3c2.9-3.2,7-3.7,10.1-1.4c1.1,0.8,1.4,2.4,0.5,3.5s-2.4,1.4-3.5,0.5
		c-1.6-1.2-3.2,0.5-3.4,0.7c-2.2,2.3-1.9,6.3-0.7,8.9c1.3,3.1,4.2,4.5,9.4,4.6c3.2,0,5.8-0.5,7.7-1.4c4.2-2.2,6.9-7.7,6.5-13.5
		c-0.4-6.6-4.8-16.4-11.7-21.5c-3.8-2.8-7.6-3.7-11.6-2.8c-2.8,0.6-5.6,2.2-8.7,4.5c-5.9,4.6-10.5,10.6-12.8,17.1
		c-2.4,6.9-1.9,14.2,1.7,21.5c0.6,1.3,0.1,2.8-1.2,3.3c-1.3,0.6-2.8,0.1-3.3-1.2c-4.1-8.5-4.9-17.3-2-25.4
		c2.6-7.4,7.7-14.3,14.5-19.4c3.7-2.8,7.2-4.6,10.6-5.4c5.4-1.3,10.8,0,15.8,3.6C231.8,719.7,233.6,721.4,235.2,723.3z"/>
	<circle class="st6" cx="1246.4" cy="573.4" r="6.4"/>
	<circle class="st6" cx="1255.9" cy="553.8" r="6.4"/>
	<circle class="st6" cx="1267.6" cy="568.9" r="6.4"/>
	<path class="st6" d="M1328.4,521.1c-4.3-4.9-8.7-9.7-13.3-14.6c5-5,10-10.4,14-16.4c1.1-1.5,0.6-3.7-0.9-4.7
		c-1.5-1.1-3.7-0.6-4.7,0.9c-3.8,5.6-8.2,10.4-13.1,15.2c-4.3-4.5-8.7-9-13.2-13.4c-1.4-1.4-3.5-1.4-4.8,0c-1.3,1.3-1.3,3.5,0,4.8
		c4.4,4.3,8.7,8.8,13.1,13.3c-1,1-2.1,2-3.2,2.9c-3.7,3.4-7.6,7-11.2,10.8c-1.3,1.3-1.3,3.4,0,4.8l0,0c1.4,1.3,3.5,1.3,4.8-0.1
		c3.5-3.6,7.3-7.1,10.9-10.5c1.1-1,2.1-2,3.2-3c4.4,4.8,8.8,9.5,13.1,14.3c0.1,0.1,0.1,0.1,0.2,0.2c1.3,1.3,3.3,1.3,4.7,0.2
		C1329.6,524.7,1329.7,522.6,1328.4,521.1z"/>
	<path class="st6" d="M265.4,477.4l-0.4-2.3c-1.4-10-2-20.9-2.1-33.3c0-4.9,0-10.3,0.2-16.6c0-0.6,0-1.4,0-2.1
		c0-4.5,0-10.1,3.5-12.1c2-1.2,4.6-0.9,7.6,0.8c5.1,2.8,11.9,7.8,15.8,13.4c5,7,6.6,15.2,4.5,23.1c-2.9,11.1-13.5,27.9-27,28.9
		L265.4,477.4z"/>
	<path class="st6" d="M269.5,414.9c-0.2,0-0.3,0-0.4,0.1s-0.6,0.4-1,2.4c-0.3,1.7-0.3,3.8-0.3,5.7c0,0.7,0,1.5,0,2.2
		c-0.2,6.2-0.2,11.5-0.2,16.5c0.1,11.3,0.6,21.2,1.8,30.3c9.9-2.4,18.4-16.3,20.7-25c1.7-6.5,0.4-13.3-3.8-19.2l0,0
		c-3.5-5-9.8-9.5-14.3-12C270.8,415.2,269.9,414.9,269.5,414.9z"/>
	<path class="st6" d="M368.3,479.2c-0.1,0-0.2,0-0.4-0.1c-2.2-0.6-3.6-0.8-6-0.6c-0.6,0-1.2-0.5-1.3-1.1c0-0.6,0.4-1.2,1.1-1.3
		c2.8-0.2,4.4,0,6.8,0.7c0.6,0.2,1,0.8,0.8,1.4C369.2,478.8,368.8,479.2,368.3,479.2z"/>
	<path class="st6" d="M359.1,487.9c-0.5,0-0.9-0.3-1.1-0.7c-0.7-1.9-1.1-3.9-1.2-5.9c0-0.6,0.5-1.2,1.1-1.2s1.2,0.5,1.2,1.1
		c0.1,1.8,0.5,3.5,1,5.2c0.2,0.6-0.1,1.3-0.7,1.4C359.4,487.9,359.2,487.9,359.1,487.9z"/>
	<path class="st6" d="M348.3,482.4c-0.4,0-0.7-0.2-0.9-0.4c-0.4-0.5-0.3-1.3,0.2-1.6c1.6-1.3,3.3-2.3,5.2-3.2c0.5-0.3,1.3,0,1.5,0.5
		c0.3,0.5,0,1.3-0.5,1.5c-1.7,0.8-3.3,1.8-4.8,3C348.9,482.3,348.6,482.4,348.3,482.4z"/>
	<path class="st6" d="M354.1,474.2c-0.4,0-0.8-0.3-1.1-0.6c-0.4-0.9-1.1-1.7-2.2-3.1c-0.3-0.4-0.6-0.8-1-1.3s-0.3-1.3,0.2-1.6
		c0.5-0.4,1.3-0.3,1.6,0.2c0.4,0.4,0.7,0.9,1,1.3c1.2,1.4,1.9,2.3,2.4,3.5c0.3,0.5,0,1.3-0.5,1.5
		C354.5,474.2,354.3,474.2,354.1,474.2z"/>
	<path class="st6" d="M359.7,474c-0.3,0-0.5-0.1-0.7-0.2c-0.5-0.4-0.6-1.1-0.3-1.6c1.1-1.5,2.1-3.1,3-4.7c0.3-0.5,1-0.8,1.5-0.4
		c0.5,0.3,0.8,1,0.5,1.5c-0.9,1.7-2,3.4-3.1,5C360.3,473.8,360,474,359.7,474z"/>
	<path class="st6" d="M897,598.2c-0.1,0-0.2,0-0.4-0.1c-2.2-0.6-3.6-0.8-6-0.6c-0.6,0-1.2-0.5-1.3-1.1c0-0.6,0.5-1.2,1.1-1.3
		c2.8-0.2,4.4,0,6.8,0.7c0.6,0.2,1,0.8,0.8,1.4C897.9,597.8,897.4,598.2,897,598.2z"/>
	<path class="st6" d="M887.8,606.9c-0.4,0-0.9-0.3-1.1-0.7c-0.7-1.9-1.1-3.9-1.2-5.9c0-0.6,0.5-1.2,1.1-1.2s1.2,0.5,1.2,1.1
		c0.1,1.8,0.5,3.5,1,5.2c0.2,0.6-0.1,1.3-0.7,1.4C888.1,606.9,887.9,606.9,887.8,606.9z"/>
	<path class="st6" d="M877,601.4c-0.4,0-0.7-0.2-0.9-0.5c-0.4-0.5-0.3-1.3,0.2-1.6c1.6-1.3,3.3-2.3,5.2-3.2c0.5-0.3,1.3,0,1.5,0.5
		c0.3,0.5,0,1.3-0.5,1.5c-1.7,0.8-3.3,1.8-4.8,3C877.5,601.3,877.3,601.4,877,601.4z"/>
	<path class="st6" d="M882.8,593.2c-0.4,0-0.8-0.3-1.1-0.6c-0.4-0.9-1.1-1.7-2.2-3.1c-0.3-0.4-0.6-0.8-1-1.3s-0.3-1.3,0.2-1.6
		c0.5-0.4,1.3-0.3,1.6,0.2c0.4,0.4,0.7,0.9,1,1.3c1.2,1.4,1.9,2.3,2.4,3.5c0.3,0.5,0,1.3-0.5,1.5
		C883.1,593.2,882.9,593.2,882.8,593.2z"/>
	<path class="st6" d="M888.3,593c-0.3,0-0.5-0.1-0.7-0.2c-0.5-0.4-0.6-1.1-0.3-1.6c1.1-1.5,2.1-3.1,3-4.7c0.3-0.5,1-0.8,1.5-0.5
		s0.8,1,0.5,1.5c-0.9,1.7-2,3.4-3.1,5C889,592.8,888.7,593,888.3,593z"/>
	<path class="st6" d="M1167.3,769.7c-1.3,0-2.6-0.2-4-0.6c-7.6-2.4-14.9-11.4-16.8-18c-0.4-1.3-0.6-2.6-0.8-4
		c-7.3,3-14,9.5-13.9,18.9c0,1.4-1.1,2.4-2.4,2.5l0,0c-1.3,0-2.4-1.1-2.4-2.4c-0.1-6,2.2-11.6,6.3-16.2c3.2-3.6,7.6-6.4,12.3-7.9
		c0.4-5.8,2.8-11.6,6.7-15.7c6.3-6.7,16.4-8,24.6-9.1l0.6-0.1c1.3-0.2,2.6,0.8,2.8,2.1c0.2,1.3-0.8,2.6-2.1,2.8l-0.6,0.1
		c-7.7,1.1-16.6,2.3-21.6,7.6c-2.7,2.9-4.5,6.9-5.1,11.2c7.1-0.9,15.9,1.2,21.9,5.1c3.9,2.6,6.4,7,6.5,11.4c0.2,3.9-1.5,7.5-4.7,10
		C1172.3,768.8,1169.9,769.7,1167.3,769.7z"/>
	<path class="st6" d="M1150.5,745.7c0.1,1.3,0.4,2.7,0.7,4c1.5,5.2,7.8,12.8,13.6,14.7c2.5,0.8,4.6,0.5,6.5-1
		c2.4-1.9,2.9-4.3,2.8-5.9c-0.1-2.9-1.8-5.8-4.3-7.5C1164.6,746.4,1156.5,744.7,1150.5,745.7z"/>
</g>
<linearGradient id="SVGID_1_" gradientUnits="userSpaceOnUse" x1="720.0476" y1="1205.5594" x2="719.9471" y2="-312.2657" gradientTransform="matrix(1 0 0 -1 0 1390)">
	<stop  offset="0" style="stop-color:#0596A6;stop-opacity:0"/>
	<stop  offset="6.143431e-02" style="stop-color:#0591A4;stop-opacity:0.1212"/>
	<stop  offset="0.1301" style="stop-color:#04849E;stop-opacity:0.2567"/>
	<stop  offset="0.202" style="stop-color:#026E93;stop-opacity:0.3985"/>
	<stop  offset="0.2535" style="stop-color:#00598A;stop-opacity:0.5"/>
	<stop  offset="0.3315" style="stop-color:#06446A;stop-opacity:0.6084"/>
	<stop  offset="0.4198" style="stop-color:#0B304B;stop-opacity:0.731"/>
	<stop  offset="0.4695" style="stop-color:#0D2840;stop-opacity:0.8"/>
	<stop  offset="0.5285" style="stop-color:#0D2840;stop-opacity:0.8287"/>
	<stop  offset="0.8807" style="stop-color:#0D2840"/>
</linearGradient>
<linearGradient id="SVGID_2_" gradientUnits="userSpaceOnUse" x1="-0.5" y1="903.5957" x2="1440.5" y2="903.5957">
	<stop  offset="0" style="stop-color:#FFFFFF;stop-opacity:0"/>
	<stop  offset="7.777273e-03" style="stop-color:#FAFBFB;stop-opacity:1.215971e-02"/>
	<stop  offset="0.1096" style="stop-color:#BCC4CA;stop-opacity:0.1714"/>
	<stop  offset="0.2105" style="stop-color:#8794A0;stop-opacity:0.3291"/>
	<stop  offset="0.3081" style="stop-color:#5B6D7E;stop-opacity:0.4817"/>
	<stop  offset="0.4017" style="stop-color:#394F63;stop-opacity:0.628"/>
	<stop  offset="0.4902" style="stop-color:#213A50;stop-opacity:0.7665"/>
	<stop  offset="0.5718" style="stop-color:#122C44;stop-opacity:0.8939"/>
	<stop  offset="0.6396" style="stop-color:#0D2840"/>
</linearGradient>
<path class="st7" d="M1385.6,463.2c-81.8,28.4-152.2-60.5-239.6-94.5c-178.6-69.5-267.3,152.7-512.2,134.1
	c-165.9-12.6-200.5-120.3-473.2-163.9C92.2,328,35.6,325.3,0,324.7C0,518.9,0,713,0,907.3c0,1.7,0,3.4,0,5.2v570h1440v-570
	c0-1.7,0-3.4,0-5.2c0-161.2,0-322.4,0-483.6C1429.9,435.9,1412.2,454,1385.6,463.2z"/>
<path class="st5" d="M37.9,474.3c1.2-1.8,12.9-15.9,14-15.6c0.7,0.2,10.3,15.4,10.3,16C62.2,474.9,44,474.8,37.9,474.3z"/>
<path class="st5" d="M112.7,795.2L112.7,795.2c0.5,0.1,1.2-0.1,1.3-0.6c0-0.1,0-0.1,0-0.3c0.2-1,2.5-9.1,4-14.1
	c0.1-0.2,0-0.4-0.2-0.6c-0.2-0.2-0.4-0.3-0.7-0.4c-0.2,0-4.2-0.8-5.1-0.9l-12.1-2c-0.3-0.1-0.6,0-0.8,0.1c-0.2,0.1-0.4,0.3-0.4,0.4
	v0.1c-0.7,4.7-2,9.5-3.5,14.1c-0.1,0.2,0,0.4,0.2,0.7c0.2,0.2,0.4,0.3,0.7,0.4C101.3,793,107.5,794.2,112.7,795.2z"/>
<path class="st5" d="M991.9,796.5c-0.1-0.1-6-5.9-8.7-9.1c-0.2-0.2-0.5-0.7-0.6-1.1c-0.2-0.3-0.4-0.5-0.6-0.6
	c-0.3-0.1-0.5,0-0.7,0.2l-9.5,10.6l0,0c-0.2,0.1-0.2,0.4-0.2,0.7c0,0.2,0.2,0.5,0.4,0.7c0.1,0.1,1.6,1.6,2.5,2.2
	c2.8,2.2,7.9,7.6,8,7.7c0.2,0.2,0.5,0.3,0.7,0.3c0.3,0,0.4-0.1,0.5-0.4c0,0,1.1-2,1.8-3c1-1.4,2.1-2.7,3.1-4c0.8-1,1.2-1.2,1.5-1.4
	c0.5-0.3,0.9-0.5,1.9-1.7C992.4,797.5,992.3,796.9,991.9,796.5z"/>
<path class="st5" d="M1272.3,625.9c-0.1-0.1-6-5.9-8.7-9.1c-0.2-0.2-0.5-0.7-0.6-1.1c-0.2-0.3-0.4-0.5-0.6-0.6
	c-0.3-0.1-0.5,0-0.7,0.2l-9.4,10.6l0,0c-0.2,0.1-0.2,0.4-0.2,0.7c0,0.2,0.2,0.5,0.4,0.7c0.1,0.1,1.6,1.6,2.5,2.2
	c2.8,2.2,7.9,7.6,8,7.7c0.2,0.2,0.4,0.3,0.7,0.3c0.3,0,0.4-0.1,0.5-0.4c0,0,1.1-2,1.8-3c1-1.4,2.1-2.7,3.2-4c0.8-1,1.2-1.2,1.5-1.4
	c0.5-0.3,0.9-0.5,1.9-1.7C1272.8,626.8,1272.7,626.2,1272.3,625.9z"/>
<path class="st8" d="M1073.4,795.2c2.3-0.9,22.3-6.2,23-5.4c0.4,0.5-3.5,17.2-4.1,17.7C1092.1,807.7,1077.9,798.6,1073.4,795.2z
	 M1184.8,428.8c0-0.1-4.4-6.8-6.3-10.3c-0.1-0.2-0.3-0.8-0.4-1.2c-0.1-0.3-0.3-0.5-0.5-0.7c-0.3-0.1-0.5-0.1-0.7,0.1l-11.8,8.9l0,0
	c-0.2,0.1-0.3,0.4-0.4,0.6c0,0.2,0,0.5,0.2,0.7c0.1,0.1,1.3,1.8,1.9,2.6c2.2,2.7,5.8,8.8,5.8,8.8c0.2,0.2,0.4,0.4,0.6,0.4
	c0.3,0,0.4-0.1,0.6-0.2c0,0,1.6-1.8,2.4-2.6c1.3-1.2,2.7-2.3,4.1-3.4c1.1-0.9,1.4-1,1.9-1.2s1-0.4,2.3-1.4
	C1185,429.8,1185.1,429.2,1184.8,428.8z M110.9,820.9L110.9,820.9c0-0.5-0.4-0.9-1.1-0.9c-0.1,0-0.3,0-0.4,0.1
	c-1.4,0.1-12.9,0.1-20,0c-0.3,0-0.5,0.1-0.8,0.3c-0.2,0.1-0.4,0.4-0.4,0.7c0,0.1,0,3.5,0.1,4.3l0.4,9.9c0,0.2,0.2,0.4,0.4,0.7
	c0.2,0.1,0.4,0.2,0.7,0.2h0.1c6.6-0.5,13.2-0.7,19.8-0.4c0.3,0,0.6-0.1,0.8-0.2s0.4-0.4,0.4-0.7
	C110.8,830.3,110.8,825.2,110.9,820.9z"/>
<path class="st2" d="M37.9,474.3c1.2-1.8,12.9-15.9,14-15.6c0.7,0.2,10.3,15.4,10.3,16C62.2,474.9,44,474.8,37.9,474.3z"/>
<path class="st2" d="M420.6,712.2c-0.1-0.1-6-5.9-8.7-9.1c-0.2-0.2-0.4-0.7-0.6-1.1c-0.2-0.3-0.4-0.5-0.6-0.6
	c-0.3-0.1-0.5,0-0.7,0.2l-9.4,10.6l0,0c-0.2,0.1-0.2,0.4-0.2,0.7c0,0.2,0.2,0.5,0.4,0.7c0.1,0.1,1.6,1.6,2.5,2.2
	c2.8,2.2,7.9,7.6,8,7.7c0.2,0.2,0.4,0.3,0.7,0.3s0.5-0.1,0.5-0.4c0,0,1.1-2,1.8-3c1-1.4,2.1-2.7,3.1-4c0.8-1,1.2-1.2,1.5-1.4
	c0.5-0.3,0.9-0.5,1.9-1.7C421.1,713.2,421,712.6,420.6,712.2z"/>
<path class="st2" d="M79.8,393.7L79.8,393.7c0.5,0.1,1.2-0.1,1.3-0.6c0-0.1,0-0.1,0-0.3c0.2-1,2.5-9.1,4.1-14.1
	c0.1-0.2,0-0.4-0.2-0.6s-0.5-0.3-0.7-0.4c-0.2,0-4.2-0.8-5.1-0.9l-12.1-2c-0.3-0.1-0.6,0-0.8,0.1s-0.4,0.3-0.4,0.4v0.1
	c-0.7,4.7-2,9.5-3.5,14.1c-0.1,0.2,0,0.4,0.2,0.7c0.2,0.2,0.5,0.3,0.7,0.4C68.4,391.5,74.6,392.7,79.8,393.7z"/>
<path class="st2" d="M80.7,392.4c-0.1-0.1-0.2-0.1-0.4-0.1C80.6,392.2,80.6,392.3,80.7,392.4z"/>
<g>
	<path class="st9" d="M513.3,792.4c-1.3,0-2.5-0.6-3.1-1.7c-0.7-1.4,0-3,1.7-3.6c3.3-1.2,6.1-3.4,7.6-6.2c1.4-2.8,1.5-5.9,0.2-8.6
		c-0.3-0.7-0.7-1.3-1.1-2c-0.7-1.2-1.6-2.7-2.1-4.3c-0.8-3-0.2-6.2,1.8-9.3c1.5-2.2,3.7-4.4,6.8-6.6c1.4-1,3.6-0.9,4.8,0.3
		c1.3,1.2,1.1,2.9-0.4,3.8c-2.5,1.8-4.2,3.4-5.3,5.1c-1.3,1.9-1.7,3.8-1.2,5.5c0.3,1,0.9,2,1.5,3.1c0.5,0.8,0.9,1.6,1.4,2.4
		c1.9,4.1,1.8,8.7-0.3,12.8c-2.1,4-6.1,7.3-11.1,9.1C514.2,792.3,513.8,792.4,513.3,792.4z M550.1,755.3c1.3-0.1,2.7,0.4,3.4,1.4
		c1,1.3,0.4,3-1.3,3.8c-3.3,1.5-5.8,4.1-6.8,6.9c-1.1,2.9-0.7,6.1,1,8.8c0.4,0.7,0.9,1.2,1.4,2c0.9,1.2,2,2.5,2.7,4.1
		c1.3,2.9,1.1,6.3-0.5,9.6c-1.3,2.5-3.2,4.8-6.1,7.3c-1.4,1.2-3.5,1.2-5,0.1c-1.4-1-1.5-2.8-0.2-3.9c2.3-2,3.9-3.8,4.8-5.6
		c1-2,1.2-4.1,0.5-5.7c-0.5-0.9-1.2-2-2-3c-0.5-0.7-1.2-1.5-1.7-2.3c-2.5-3.9-3.1-8.6-1.5-12.9c1.6-4.3,5.2-8,10.1-10.1
		C549.2,755.4,549.6,755.3,550.1,755.3z M118.9,878c5.1,4.9,8.1,11.4,8.5,16.2c0.4,5.3-2.2,11.9-9.2,14.8c-2.7,1.1-6,1.6-10.1,1.6
		c-7.1-0.1-11.6-2.1-13.9-6.1c-1.9-3.4-2.1-8.3,1.6-11.5c2.9-2.5,7-3,10.1-1.2c1.1,0.7,1.3,2,0.5,2.8c-0.8,0.9-2.4,1.1-3.5,0.4
		c-1.6-0.9-3.2,0.4-3.4,0.6c-2.2,1.9-1.9,5.1-0.7,7.2c1.3,2.5,4.2,3.6,9.4,3.7c3.2,0,5.8-0.4,7.7-1.2c4.2-1.7,6.9-6.2,6.5-10.9
		c-0.4-5.3-4.8-13.2-11.7-17.3c-3.8-2.2-7.7-3-11.6-2.2c-2.8,0.5-5.6,1.7-8.7,3.6c-5.9,3.7-10.5,8.5-12.8,13.8
		c-2.4,5.6-1.9,11.4,1.7,17.3c0.6,1,0.1,2.2-1.2,2.7c-1.3,0.5-2.8,0.1-3.3-0.9c-4.1-6.8-4.9-13.9-2-20.4c2.6-5.9,7.7-11.5,14.5-15.6
		c3.7-2.2,7.2-3.7,10.6-4.3c5.4-1,10.8,0,15.8,2.9C115.5,875.1,117.3,876.5,118.9,878z"/>
	<ellipse class="st9" cx="796" cy="561.5" rx="6.4" ry="5.1"/>
	<ellipse class="st9" cx="805.6" cy="545.7" rx="6.4" ry="5.1"/>
	<ellipse class="st9" cx="817.3" cy="557.8" rx="6.4" ry="5.1"/>
	<path class="st9" d="M1241.5,665.3c-4.3-3.9-8.7-7.8-13.3-11.7c5-4.1,10-8.3,14-13.2c1.1-1.2,0.6-3-0.9-3.8
		c-1.5-0.9-3.7-0.5-4.7,0.7c-3.8,4.5-8.2,8.4-13,12.2c-4.3-3.6-8.7-7.2-13.2-10.8c-1.3-1.1-3.5-1.1-4.8,0c-1.4,1.1-1.4,2.8,0,3.8
		c4.4,3.5,8.7,7.1,13,10.7c-1,0.8-2.1,1.6-3.2,2.3c-3.7,2.8-7.6,5.7-11.2,8.7c-1.3,1.1-1.3,2.8,0,3.8l0,0c1.3,1,3.5,1,4.8-0.1
		c3.5-2.9,7.3-5.7,10.9-8.5c1.1-0.8,2.1-1.6,3.2-2.4c4.4,3.8,8.8,7.7,13.1,11.5c0.1,0.1,0.1,0.1,0.2,0.1c1.3,1,3.3,1.1,4.7,0.1
		C1242.7,668.2,1242.8,666.4,1241.5,665.3z M178.5,630.1l-0.4-1.9c-1.3-8-2-16.8-2.1-26.8c0-4,0-8.3,0.2-13.4c0-0.5,0-1.1,0-1.7
		c0-3.6,0-8.1,3.5-9.8c2-0.9,4.6-0.7,7.6,0.7c5.1,2.2,11.9,6.3,15.8,10.8c4.9,5.7,6.6,12.2,4.5,18.6c-2.9,8.9-13.5,22.5-27,23.3
		L178.5,630.1z M182.6,579.8c-0.2,0-0.3,0-0.4,0.1s-0.6,0.4-1,2c-0.3,1.4-0.3,3-0.3,4.6c0,0.6,0,1.2,0,1.7c-0.2,5-0.2,9.3-0.2,13.3
		c0.1,9.1,0.6,17,1.8,24.4c9.9-2,18.4-13.1,20.7-20.1c1.7-5.2,0.4-10.7-3.8-15.4l0,0c-3.5-4-9.8-7.7-14.3-9.6
		C183.9,580,183,579.8,182.6,579.8z M348.4,494c-0.1,0-0.2,0-0.4-0.1c-2.2-0.5-3.6-0.7-6-0.5c-0.6,0-1.2-0.4-1.3-0.9
		c0-0.5,0.5-0.9,1.1-1c2.8-0.1,4.4,0,6.8,0.6c0.6,0.1,1,0.7,0.8,1.2C349.3,493.7,348.8,494,348.4,494z M339.2,501
		c-0.5,0-0.9-0.2-1.1-0.6c-0.7-1.5-1.1-3.1-1.2-4.8c0-0.5,0.4-0.9,1.1-0.9c0.6,0,1.2,0.4,1.2,0.9c0.1,1.4,0.4,2.8,1,4.2
		c0.2,0.5-0.1,1-0.7,1.2C339.5,501,339.3,501,339.2,501z M328.4,496.6c-0.4,0-0.7-0.1-0.9-0.4c-0.4-0.4-0.3-1,0.2-1.3
		c1.6-1,3.3-1.9,5.2-2.6c0.5-0.2,1.3,0,1.5,0.4c0.3,0.4,0,1-0.5,1.2c-1.7,0.7-3.3,1.4-4.8,2.4C328.9,496.6,328.7,496.6,328.4,496.6z
		 M334.1,490c-0.5,0-0.8-0.2-1.1-0.5c-0.5-0.7-1.1-1.4-2.2-2.5c-0.3-0.3-0.6-0.7-1-1c-0.4-0.4-0.3-1,0.2-1.3s1.3-0.2,1.6,0.1
		c0.4,0.4,0.7,0.7,1,1c1.2,1.2,1.9,1.9,2.4,2.8c0.3,0.4,0,1-0.5,1.2C334.5,490,334.3,490,334.1,490z M339.7,489.8
		c-0.3,0-0.5-0.1-0.7-0.1c-0.5-0.3-0.6-0.9-0.3-1.3c1.1-1.2,2.1-2.5,3-3.8c0.3-0.4,1-0.7,1.5-0.4c0.5,0.2,0.8,0.8,0.5,1.2
		c-0.9,1.4-2,2.8-3.2,4.1C340.4,489.7,340.1,489.8,339.7,489.8z M810.1,727.3c-0.1,0-0.2,0-0.4-0.1c-2.2-0.5-3.6-0.7-6-0.5
		c-0.6,0-1.2-0.4-1.3-0.9c0-0.5,0.5-0.9,1.1-1c2.8-0.1,4.4,0,6.8,0.6c0.6,0.1,1,0.7,0.8,1.2C811,727,810.5,727.3,810.1,727.3z
		 M800.9,734.3c-0.5,0-0.9-0.2-1.1-0.6c-0.7-1.5-1.1-3.1-1.2-4.8c0-0.5,0.4-0.9,1.1-0.9c0.6,0,1.2,0.4,1.2,0.9
		c0.1,1.4,0.4,2.8,1,4.2c0.2,0.5-0.1,1-0.7,1.2C801.2,734.3,801,734.3,800.9,734.3z M790.1,729.9c-0.4,0-0.7-0.1-0.9-0.4
		c-0.4-0.4-0.3-1,0.2-1.3c1.6-1,3.3-1.9,5.2-2.6c0.5-0.2,1.3,0,1.5,0.4c0.3,0.4,0,1-0.5,1.2c-1.7,0.7-3.3,1.4-4.8,2.4
		C790.6,729.8,790.4,729.9,790.1,729.9z M795.8,723.3c-0.5,0-0.8-0.2-1.1-0.5c-0.5-0.7-1.1-1.4-2.2-2.5c-0.3-0.3-0.6-0.7-1-1
		c-0.4-0.4-0.3-1,0.2-1.3s1.3-0.2,1.6,0.1c0.4,0.4,0.7,0.7,1,1c1.2,1.2,1.9,1.9,2.4,2.8c0.3,0.4,0,1-0.5,1.2
		C796.2,723.3,796,723.3,795.8,723.3z M801.4,723.1c-0.3,0-0.5-0.1-0.7-0.1c-0.5-0.3-0.6-0.9-0.3-1.3c1.1-1.2,2.1-2.5,3-3.8
		c0.3-0.4,1-0.7,1.5-0.4c0.5,0.2,0.8,0.8,0.5,1.2c-0.9,1.4-2,2.8-3.1,4.1C802.1,722.9,801.8,723.1,801.4,723.1z M1080.4,865.4
		c-1.3,0-2.6-0.1-4-0.5c-7.6-2-14.9-9.2-16.8-14.5c-0.4-1-0.6-2.1-0.8-3.2c-7.3,2.4-13.9,7.7-13.9,15.2c0,1.1-1.1,2-2.4,2l0,0
		c-1.4,0-2.4-0.9-2.4-2c-0.1-4.9,2.2-9.3,6.3-13c3.2-2.9,7.6-5.1,12.3-6.4c0.4-4.7,2.8-9.3,6.7-12.6c6.3-5.4,16.4-6.4,24.6-7.3
		l0.6-0.1c1.3-0.1,2.6,0.7,2.8,1.7c0.2,1.1-0.8,2.1-2.1,2.2l-0.6,0.1c-7.7,0.9-16.6,1.8-21.6,6.1c-2.7,2.3-4.5,5.6-5.1,9
		c7.1-0.7,15.9,0.9,21.9,4.1c3.9,2.1,6.4,5.7,6.5,9.2c0.2,3.1-1.5,6-4.7,8C1085.4,864.6,1083,865.4,1080.4,865.4z M1063.6,846
		c0.1,1.1,0.4,2.2,0.7,3.2c1.5,4.2,7.8,10.3,13.6,11.8c2.5,0.7,4.6,0.4,6.5-0.8c2.4-1.5,2.9-3.5,2.8-4.8c-0.1-2.3-1.8-4.6-4.3-6
		C1077.7,846.6,1069.6,845.2,1063.6,846z"/>
</g>
<path class="st2" d="M991.9,796.5c-0.1-0.1-6-5.9-8.7-9.1c-0.2-0.2-0.5-0.7-0.6-1.1c-0.2-0.3-0.4-0.5-0.6-0.6
	c-0.3-0.1-0.5,0-0.7,0.2l-9.5,10.6l0,0c-0.2,0.1-0.2,0.4-0.2,0.7c0,0.2,0.2,0.5,0.4,0.7c0.1,0.1,1.6,1.6,2.5,2.2
	c2.8,2.2,7.9,7.6,8,7.7c0.2,0.2,0.5,0.3,0.7,0.3c0.3,0,0.4-0.1,0.5-0.4c0,0,1.1-2,1.8-3c1-1.4,2.1-2.7,3.1-4c0.8-1,1.2-1.2,1.5-1.4
	c0.5-0.3,0.9-0.5,1.9-1.7C992.4,797.5,992.3,796.9,991.9,796.5z"/>
<path class="st2" d="M1272.3,625.9c-0.1-0.1-6-5.9-8.7-9.1c-0.2-0.2-0.5-0.7-0.6-1.1c-0.2-0.3-0.4-0.5-0.6-0.6
	c-0.3-0.1-0.5,0-0.7,0.2l-9.4,10.6l0,0c-0.2,0.1-0.2,0.4-0.2,0.7c0,0.2,0.2,0.5,0.4,0.7c0.1,0.1,1.6,1.6,2.5,2.2
	c2.8,2.2,7.9,7.6,8,7.7c0.2,0.2,0.4,0.3,0.7,0.3c0.3,0,0.4-0.1,0.5-0.4c0,0,1.1-2,1.8-3c1-1.4,2.1-2.7,3.2-4c0.8-1,1.2-1.2,1.5-1.4
	c0.5-0.3,0.9-0.5,1.9-1.7C1272.8,626.8,1272.7,626.2,1272.3,625.9z"/>
<path class="st2" d="M394.2,541.2c-0.1-0.1-6-5.9-8.7-9.1c-0.2-0.2-0.5-0.7-0.6-1.1c-0.2-0.3-0.4-0.5-0.6-0.6s-0.5,0-0.7,0.2
	l-9.5,10.6l0,0c-0.2,0.1-0.2,0.4-0.2,0.7c0,0.2,0.2,0.5,0.4,0.7c0.1,0.1,1.6,1.6,2.5,2.2c2.8,2.2,7.9,7.6,8,7.7
	c0.2,0.2,0.5,0.3,0.7,0.3s0.4-0.1,0.5-0.4c0,0,1.1-2,1.8-3c1-1.4,2.1-2.7,3.1-4c0.8-1,1.2-1.2,1.5-1.4c0.4-0.3,0.9-0.5,1.9-1.7
	C394.7,542.1,394.6,541.5,394.2,541.2z"/>
<g id="Layer_2_1_">
</g>
</svg>
